<?xml version="1.0" encoding="UTF-8"?>
<svg width="37px" height="33px" viewBox="0 0 37 33" version="1.1" xmlns="http://www.w3.org/2000/svg" xmlns:xlink="http://www.w3.org/1999/xlink">
    <!-- Generator: Sketch 61 (89581) - https://sketch.com -->
    <title>政府</title>
    <desc>Created with Sketch.</desc>
    <g id="页面-1" stroke="none" stroke-width="1" fill="none" fill-rule="evenodd">
        <g id="窗口人员首页" transform="translate(-667.000000, -367.000000)" fill-rule="nonzero">
            <g id="Group-3备份-2" transform="translate(614.000000, 256.000000)">
                <g id="Group-30-Copy-2" transform="translate(25.000000, 81.000000)">
                    <g id="政府" transform="translate(28.000000, 30.000000)">
                        <path d="M2.9050561,29.6315723 L2.9050561,6.97213465 C2.9050561,6.81804089 2.96626961,6.67025841 3.07523035,6.56129767 C3.1841911,6.45233693 3.33197358,6.39112344 3.48606734,6.39112344 L10.458202,6.39112344 C10.7790856,6.39112344 11.0392132,6.65125102 11.0392132,6.97213465 L11.0392132,15.9836187" id="路径" fill="#FFFFFF"></path>
                        <path d="M3.48606734,29.6315723 L2.32404488,29.6315723 L2.32404488,6.97213465 C2.32404488,6.33036738 2.84430007,5.81011222 3.48606734,5.81011222 L10.458202,5.81011222 C11.0999693,5.81011222 11.6202244,6.33036738 11.6202244,6.97213465 L11.6202244,15.9836187 L10.458202,15.9836187 L10.458202,6.97213465 L3.48606734,6.97213465 L3.48606734,29.6315723 Z" id="路径" fill="#23AC38"></path>
                        <path d="M33.1176396,29.6315723 L33.1176396,6.97213465 C33.1176396,6.81804089 33.0564261,6.67025842 32.9474654,6.56129768 C32.8385046,6.45233694 32.6907222,6.39112344 32.5366284,6.39112344 L25.5644938,6.39112344 C25.4104,6.39112344 25.2626175,6.45233693 25.1536568,6.56129767 C25.044696,6.67025841 24.9834825,6.81804089 24.9834825,6.97213465 L24.9834825,16.2683142" id="路径" fill="#FFFFFF"></path>
                        <path d="M33.6986509,29.6315723 L32.5366284,29.6315723 L32.5366284,6.97213465 L25.5644938,6.97213465 L25.5644938,16.2683142 L24.4024713,16.2683142 L24.4024713,6.97213465 C24.4024713,6.33036738 24.9227265,5.81011222 25.5644938,5.81011222 L32.5366284,5.81011222 C33.1783957,5.81011222 33.6986509,6.33036738 33.6986509,6.97213465 L33.6986509,29.6315723 Z" id="路径" fill="#23AC38"></path>
                        <path d="M8.42466271,16.2683142 L28.1790443,16.2683142 C28.4999279,16.2683142 28.7600555,16.5284418 28.7600555,16.8493254 L28.7600555,28.7600555 L7.8436515,28.7600555 L7.8436515,16.8493254 C7.8436515,16.5284418 8.10377908,16.2683142 8.42466271,16.2683142 Z" id="路径" fill="#D3EED7"></path>
                        <path d="M28.7600555,29.0505611 L7.8436515,29.0505611 C7.76660462,29.0505611 7.69271338,29.0199543 7.63823301,28.965474 C7.58375265,28.9109936 7.55314589,28.8371024 7.55314589,28.7600555 L7.55314589,16.8493254 C7.55314589,16.368 7.94333726,15.9778086 8.42466271,15.9778086 L28.1790443,15.9778086 C28.6603697,15.9778086 29.0505611,16.368 29.0505611,16.8493254 L29.0505611,28.7600555 C29.0505611,28.8371024 29.0199543,28.9109936 28.965474,28.965474 C28.9109936,29.0199543 28.8371024,29.0505611 28.7600555,29.0505611 L28.7600555,29.0505611 Z M8.13415711,28.4695499 L28.4695499,28.4695499 L28.4695499,16.8493254 C28.4695499,16.7722785 28.4389431,16.6983873 28.3844627,16.6439069 C28.3299824,16.5894266 28.2560911,16.5588198 28.1790443,16.5588198 L8.42466271,16.5588198 C8.34761583,16.5588198 8.2737246,16.5894266 8.21924423,16.6439069 C8.16476386,16.6983873 8.13415711,16.7722785 8.13415711,16.8493254 L8.13415711,28.4695499 Z" id="形状" fill="#23AC38"></path>
                        <path d="M12.7822469,21.4974152 L23.2404489,21.4974152 C23.3945426,21.4974152 23.5423251,21.5586287 23.6512858,21.6675895 C23.7602466,21.7765502 23.8214601,21.9243327 23.8214601,22.0784264 L23.8214601,28.4695499 L12.2012357,28.4695499 L12.2012357,22.0784264 C12.2012357,21.7575428 12.4613632,21.4974152 12.7822469,21.4974152 Z" id="路径" fill="#FFFFFF"></path>
                        <path d="M5.22910101,9.29617956 L8.71516832,9.29617956 L8.71516832,12.7822469 L5.22910101,12.7822469 L5.22910101,9.29617956 Z M27.3075274,9.29617956 L30.7935948,9.29617956 L30.7935948,12.7822469 L27.3075274,12.7822469 L27.3075274,9.29617956 Z" id="形状" fill="#D3EED7"></path>
                        <polygon id="路径" fill="#23AC38" points="17.4303367 1.74303367 18.5923591 1.74303367 18.5923591 11.0392132 17.4303367 11.0392132"></polygon>
                        <path d="M23.2404489,5.22910101 L18.5923591,5.22910101 C17.9505918,5.22910101 17.4303367,4.70884582 17.4303367,4.06707855 L17.4303367,1.16202246 C17.4303367,0.520255188 17.9505918,0 18.5923591,0 L23.2404489,0 C23.8822161,0 24.4024713,0.520255175 24.4024713,1.16202246 L24.4024713,4.06707855 C24.4024713,4.70884583 23.8822161,5.22910101 23.2404489,5.22910101 Z M18.5923591,1.16202246 L18.5923591,4.06707855 L23.2404489,4.06707855 L23.2404489,1.16202246 L18.5923591,1.16202246 Z" id="形状" fill="#23AC38"></path>
                        <polygon id="路径" fill="#FFFFFF" points="0.581011213 29.0505611 35.4416845 29.0505611 35.4416845 31.9556172 0.581011213 31.9556172"></polygon>
                        <path d="M34.8606733,32.5366284 L1.16202246,32.5366284 C0.520255175,32.5366284 0,32.0163732 0,31.374606 L0,29.6315723 C0,28.989805 0.520255175,28.4695499 1.16202246,28.4695499 L34.8606733,28.4695499 C35.1688608,28.4695499 35.4644258,28.5919769 35.6823473,28.8098984 C35.9002687,29.0278198 36.0226958,29.3233848 36.0226958,29.6315723 L36.0226958,31.374606 C36.0226958,31.6827935 35.9002687,31.9783584 35.6823473,32.1962799 C35.4644258,32.4142014 35.1688608,32.5366284 34.8606733,32.5366284 L34.8606733,32.5366284 Z M1.16202246,29.6315723 L1.16202246,31.374606 L34.8606733,31.374606 L34.8606733,29.6315723 L1.16202246,29.6315723 Z" id="形状" fill="#23AC38"></path>
                        <polygon id="路径" fill="#FFFFFF" points="10.7487076 10.458202 25.2739881 10.458202 25.2739881 16.2683142 10.7487076 16.2683142"></polygon>
                        <path d="M25.2739881,16.5588198 L10.7487076,16.5588198 C10.6716607,16.5588198 10.5977695,16.5282131 10.5432891,16.4737327 C10.4888087,16.4192523 10.458202,16.3453611 10.458202,16.2683142 L10.458202,10.458202 C10.458202,10.2977602 10.5882658,10.1676964 10.7487076,10.1676964 L25.2739881,10.1676964 C25.351035,10.1676964 25.4249263,10.1983031 25.4794066,10.2527835 C25.533887,10.3072639 25.5644938,10.3811551 25.5644938,10.458202 L25.5644938,16.2683142 C25.5644938,16.3453611 25.533887,16.4192523 25.4794066,16.4737327 C25.4249263,16.5282131 25.351035,16.5588198 25.2739881,16.5588198 Z M11.0392132,15.9778086 L24.9834825,15.9778086 L24.9834825,10.7487076 L11.0392132,10.7487076 L11.0392132,15.9778086 Z" id="形状" fill="#23AC38"></path>
                        <polygon id="路径" fill="#23AC38" points="13.9442693 12.7822469 22.0784264 12.7822469 22.0784264 13.9442693 13.9442693 13.9442693 13.9442693 12.7822469"></polygon>
                    </g>
                </g>
            </g>
        </g>
    </g>
</svg>